<?xml version="1.0" standalone="no"?>
<!DOCTYPE svg PUBLIC "-//W3C//DTD SVG 20010904//EN"
 "http://www.w3.org/TR/2001/REC-SVG-20010904/DTD/svg10.dtd">
<svg version="1.0" xmlns="http://www.w3.org/2000/svg"
 width="8756.000000pt" height="10614.000000pt" viewBox="0 0 8756.000000 10614.000000"
 preserveAspectRatio="xMidYMid meet">
<metadata>
Created by potrace 1.16, written by Peter Selinger 2001-2019
</metadata>
<g transform="translate(0.000000,10614.000000) scale(0.100000,-0.100000)"
fill="#000000" stroke="none">
<path d="M66960 105229 c-431 -52 -768 -400 -910 -940 -86 -325 -122 -650
-142 -1249 -10 -314 -9 -520 5 -1260 24 -1238 21 -1607 -18 -2160 -174 -2436
-1064 -4516 -2780 -6495 -363 -419 -907 -973 -1319 -1346 l-48 -44 15 35 c8
19 38 89 67 155 278 639 449 1252 515 1845 36 324 59 850 37 850 -7 0 -263 27
-570 60 -6741 730 -12922 1635 -18710 2741 l-524 100 -864 469 c-476 259 -869
470 -873 470 -4 0 -65 -25 -137 -56 -689 -298 -1645 -670 -2434 -947 -2735
-960 -5597 -1658 -9210 -2247 -559 -91 -1726 -270 -1760 -270 -6 0 -10 -473
-10 -1287 l0 -1288 -322 -1 c-584 -1 -1066 -73 -1766 -265 l-183 -50 -117 108
c-64 59 -218 209 -342 333 -1832 1833 -3239 4408 -3940 7210 -98 394 -187 730
-251 954 -328 1144 -695 1765 -1134 1916 -226 78 -482 27 -745 -149 -303 -201
-687 -628 -957 -1061 -538 -863 -938 -1754 -1229 -2735 -1001 -3374 -496
-7408 1402 -11205 1174 -2348 2822 -4456 4729 -6050 676 -566 1342 -1038 2105
-1492 l75 -45 -5 -134 c-27 -722 42 -1174 241 -1574 93 -189 177 -303 339
-465 266 -267 588 -450 1072 -611 452 -150 1305 -304 2128 -384 223 -22 597
-22 711 0 l36 7 67 -339 c414 -2114 1060 -6619 1811 -12628 l106 -850 284
-11505 c156 -6328 282 -11507 279 -11509 -2 -2 -84 8 -181 23 -620 94 -1073
133 -1678 143 -948 15 -1858 -84 -2706 -297 -1854 -465 -3269 -1411 -4051
-2709 -83 -138 -214 -388 -262 -500 l-27 -64 -107 7 c-628 38 -1108 33 -1627
-20 -1201 -120 -2265 -513 -3121 -1151 -207 -155 -362 -290 -575 -503 -436
-435 -761 -886 -1049 -1455 -157 -309 -312 -690 -406 -992 l-37 -122 -76 -27
c-1653 -590 -2904 -1446 -3741 -2560 -770 -1024 -1147 -2260 -1069 -3507 6
-95 14 -200 18 -234 l7 -63 -3353 0 c-1844 0 -3353 -3 -3353 -7 0 -5 486 -627
1081 -1383 594 -756 1083 -1380 1085 -1386 5 -10 -2489 -6804 -2593 -7068 -43
-107 -233 -487 -285 -567 -20 -31 -484 -541 -1033 -1134 -548 -592 -993 -1081
-988 -1085 4 -4 1799 -935 3988 -2069 l3980 -2061 1460 0 1460 -1 676 -862
676 -862 1048 -560 1048 -560 59 -135 c486 -1119 1269 -2055 2103 -2517 137
-76 5074 -2419 5179 -2458 117 -43 275 -86 436 -117 l115 -22 21095 -3 21095
-3 2622 1117 2623 1117 2 1650 3 1651 777 424 778 423 652 832 c358 457 663
843 676 858 l26 28 1115 0 1116 0 3835 2064 c2109 1135 3836 2068 3837 2073 2
6 -145 423 -327 927 -182 504 -355 1000 -385 1102 l-55 186 0 3706 0 3707
1170 1490 c643 820 1169 1493 1170 1498 0 4 -2146 7 -4769 7 l-4770 0 -11 58
c-207 1026 -602 1935 -1172 2698 -749 1001 -1765 1686 -2936 1978 -310 78
-672 137 -929 153 -56 3 -106 9 -112 12 -6 4 -24 54 -41 111 -107 362 -289
706 -536 1014 -368 459 -949 900 -1534 1166 -63 28 -119 55 -123 60 -5 4 3 67
18 141 101 518 141 957 132 1439 -6 286 -19 461 -52 680 -237 1577 -1228 2752
-2826 3350 -1043 391 -2306 478 -3274 225 -323 -84 -615 -212 -819 -358 l-48
-35 -133 107 c-636 512 -1350 817 -2068 882 -187 17 -575 6 -752 -21 -127 -19
-404 -78 -447 -95 -17 -7 -18 147 -18 3151 0 6065 43 9911 155 13874 92 3264
250 6694 420 9155 94 1356 146 2309 265 4805 143 3006 212 4204 331 5680 52
651 192 2139 202 2145 1 1 90 47 197 102 561 288 1203 699 1820 1166 1781
1349 4366 3838 5655 5447 222 277 334 431 564 775 677 1013 1267 2102 1746
3220 636 1483 1083 3026 1319 4555 130 840 184 1505 193 2371 6 552 -2 862
-32 1279 -175 2413 -912 4617 -2180 6515 -458 686 -739 1017 -1080 1275 -340
257 -697 377 -1005 339z m581 -2174 c132 -348 273 -817 384 -1267 369 -1509
490 -3184 339 -4698 -174 -1743 -694 -3286 -1520 -4508 -57 -85 -104 -157
-104 -161 0 -4 33 -79 74 -167 481 -1045 746 -2247 746 -3389 0 -897 -160
-1775 -469 -2580 -28 -71 -49 -130 -48 -132 2 -1 78 145 169 325 1373 2699
2184 5482 2403 8242 65 821 72 1809 19 2595 -50 749 -138 1418 -278 2120 -227
1133 -559 2150 -1031 3160 -54 117 -51 115 43 -25 440 -661 949 -1784 1238
-2735 203 -665 378 -1665 449 -2555 32 -414 37 -532 42 -1082 7 -685 -9 -1105
-63 -1688 -239 -2615 -1076 -5238 -2385 -7476 -227 -389 -671 -1076 -685
-1061 -2 2 11 73 30 158 220 982 202 1976 -54 2999 -340 1362 -1122 2736
-2266 3980 l-24 26 126 169 c1372 1849 2123 3852 2304 6145 35 451 43 732 37
1370 -3 333 -1 697 4 810 37 821 153 1317 351 1495 40 36 95 67 112 62 5 -2
31 -61 57 -132z m-48752 -2575 c136 -62 254 -251 375 -600 68 -195 96 -291
206 -715 54 -209 120 -452 145 -540 644 -2229 1806 -4395 3285 -6120 251 -292
402 -456 690 -749 424 -430 848 -812 1243 -1119 48 -38 87 -70 87 -72 0 -8
-242 110 -430 209 -1043 552 -1924 1261 -2684 2161 -1146 1354 -1986 3138
-2560 5430 -143 574 -314 1396 -407 1963 -12 73 -24 130 -26 128 -8 -8 65
-1341 107 -1961 90 -1303 213 -2374 381 -3324 402 -2268 1119 -4070 2247
-5651 407 -570 812 -1048 1342 -1584 346 -350 640 -624 976 -908 l90 -76 56
96 c497 857 817 1853 912 2837 13 129 28 373 37 590 2 44 22 -45 58 -255 120
-698 137 -1443 50 -2195 -156 -1354 -641 -2653 -1372 -3678 -326 -457 -721
-879 -1139 -1221 l-48 -38 -66 58 c-81 71 -472 477 -679 704 -2535 2785 -4185
6406 -4510 9900 -49 528 -69 1303 -46 1800 62 1354 323 2592 791 3750 368 910
652 1287 889 1180z m22337 -3887 c318 -329 723 -746 899 -928 176 -181 392
-404 480 -494 88 -90 153 -160 145 -156 -8 5 -538 345 -1178 757 -640 411
-1166 748 -1170 748 -4 0 -1020 -337 -2257 -748 l-2251 -748 24 181 c12 99 28
213 35 254 l12 74 2335 828 c1284 455 2338 827 2341 828 3 1 267 -268 585
-596z m-6816 -1899 c685 -740 766 -828 788 -855 l23 -29 -20 -55 c-28 -76 -28
-194 0 -277 25 -74 60 -126 131 -194 461 -443 2262 -840 4978 -1098 1948 -186
4275 -280 6098 -248 701 13 967 21 1452 47 1049 57 1889 160 2423 298 70 19
124 30 119 25 -15 -15 -191 -88 -287 -120 -1212 -400 -4576 -525 -8260 -308
-3316 196 -5895 621 -6715 1106 -220 130 -310 236 -340 403 -26 147 26 277
168 420 51 51 91 95 90 97 -2 1 -300 144 -663 317 l-660 313 -65 -13 c-36 -8
-292 -58 -570 -113 -886 -174 -1308 -247 -1963 -341 -202 -29 -366 -56 -365
-59 5 -11 338 -330 565 -542 856 -796 1632 -1424 2393 -1934 1309 -879 2536
-1397 4024 -1699 143 -30 253 -54 243 -54 -30 -1 -708 115 -897 154 -872 180
-1640 405 -2389 702 -1779 704 -3435 1819 -5141 3460 l-135 130 90 13 c1454
199 2492 368 3465 565 289 59 870 186 1005 220 28 7 61 12 75 12 18 -2 101
-85 340 -343z m17862 41 c2494 -334 5194 -622 8267 -884 321 -28 586 -52 588
-55 9 -9 -39 -209 -84 -349 -138 -431 -319 -732 -610 -1019 -136 -134 -179
-172 -314 -274 -601 -455 -1507 -839 -2703 -1145 l-231 -59 -1103 462 c-606
254 -1100 463 -1098 465 4 5 678 -175 1683 -448 282 -76 523 -139 536 -139 35
0 378 109 599 191 1093 405 1928 964 2328 1559 96 142 224 400 207 416 -11 11
-1043 186 -1857 314 -606 96 -1446 223 -2910 440 -2205 327 -3929 593 -3873
599 6 0 265 -33 575 -74z m-8937 -225 c2460 -47 5335 -219 7615 -455 2248
-234 3759 -568 4297 -951 276 -197 168 -411 -337 -668 -120 -61 -379 -176
-397 -176 -4 0 34 23 85 50 198 105 350 230 392 322 30 67 27 143 -9 200 -102
161 -546 365 -1157 532 -1190 325 -3134 569 -6204 781 -1340 92 -2595 152
-4125 197 -583 17 -2828 17 -3295 0 -1961 -72 -3235 -222 -4095 -481 -54 -17
-101 -29 -102 -27 -2 2 25 15 59 31 850 370 2542 592 4920 644 522 12 1770 12
2353 1z m-2770 -657 c-16 -2 -88 -10 -160 -19 -513 -62 -865 -177 -931 -306
-79 -153 246 -311 906 -442 724 -143 2066 -256 3890 -327 445 -17 1791 -23
2140 -10 481 19 819 42 1108 77 73 9 136 13 140 9 12 -12 -44 -52 -105 -75
-182 -70 -598 -121 -1323 -162 -292 -17 -1780 -17 -2240 0 -1853 68 -3294 187
-4015 333 -472 95 -793 229 -860 360 -96 185 226 377 830 493 113 21 376 58
500 69 53 5 159 5 120 0z m3025 -293 c1074 -17 1927 -45 2710 -90 1829 -106
3464 -304 4025 -486 102 -34 212 -91 232 -121 38 -57 -25 -111 -196 -166 -140
-46 -183 -54 -176 -35 9 24 -42 76 -104 107 -295 149 -1279 306 -2756 440
-340 31 -1370 109 -1660 125 -737 42 -2412 76 -3813 76 l-973 0 -55 26 c-70
33 -72 56 -6 78 60 20 188 36 355 45 198 12 1705 12 2417 1z m420 -320 c1203
-67 1812 -115 1863 -147 21 -13 -47 -23 -244 -34 -256 -14 -356 -9 -644 34
-284 43 -744 96 -1235 142 -195 18 -337 33 -315 34 22 1 281 -13 575 -29z
m-14696 -535 c998 -994 2038 -1774 3201 -2402 295 -160 816 -410 1098 -528 44
-18 72 -36 76 -49 4 -12 25 -178 45 -371 21 -192 157 -1434 302 -2760 145
-1325 264 -2414 264 -2419 0 -5 2 -7 5 -5 3 4 530 3878 644 4744 51 385 45
357 76 345 14 -5 150 -45 302 -89 1182 -338 2485 -565 4048 -705 919 -83 1898
-136 3292 -180 227 -7 416 -16 420 -20 4 -4 85 -2216 179 -4917 94 -2700 173
-4911 175 -4913 2 -2 704 1485 1559 3305 855 1819 1556 3307 1557 3305 2 -2
-10 -973 -27 -2157 l-31 -2154 -54 -725 c-186 -2469 -258 -3741 -316 -5570
-17 -537 -23 -2227 -10 -2785 38 -1650 140 -3054 321 -4425 l30 -224 0 -1965
0 -1964 862 -1559 c475 -857 866 -1558 869 -1558 10 0 206 177 439 396 233
218 700 688 900 904 1242 1342 2295 2844 3297 4705 167 309 478 914 588 1143
43 89 80 161 82 159 8 -8 -377 -1036 -557 -1487 -1040 -2604 -2054 -4193
-3966 -6215 -170 -180 -902 -926 -914 -932 -3 -2 -85 178 -182 400 -248 562
-1283 2911 -2121 4812 -387 880 -787 1787 -887 2015 -100 228 -184 416 -185
418 -1 1 -285 -198 -631 -442 -346 -245 -630 -442 -631 -438 -1 4 -116 1489
-255 3300 -139 1811 -256 3285 -260 3275 -3 -10 -120 -1656 -259 -3658 -212
-3063 -255 -3643 -268 -3657 -24 -25 -1592 -1130 -1597 -1125 -2 2 -148 953
-324 2112 -176 1159 -321 2110 -324 2112 -2 2 -6 -20 -10 -49 -27 -205 -677
-5079 -681 -5103 -4 -24 -23 -43 -104 -99 -87 -61 -98 -72 -91 -90 4 -12 31
-75 60 -141 81 -187 351 -848 348 -851 -2 -1 -102 165 -222 369 -1287 2186
-2836 4511 -4142 6218 -322 420 -438 567 -445 563 -3 -2 -485 -888 -1069
-1968 -585 -1081 -1065 -1964 -1066 -1963 -5 5 -1905 12740 -1902 12749 2 4
34 -114 72 -263 l70 -272 20 25 c562 682 995 1318 1371 2013 1224 2263 1579
4756 1029 7245 -294 1332 -867 2690 -1650 3910 l-93 145 -156 114 c-1021 741
-1932 1723 -2659 2866 l-57 90 132 -140 c72 -77 258 -266 413 -420z m3664 24
c2291 -1292 6277 -2030 11305 -2095 l528 -7 473 -551 c259 -303 475 -557 480
-564 4 -7 -49 -190 -128 -435 -281 -879 -642 -2035 -1062 -3405 -120 -391
-220 -708 -222 -704 -1 4 209 987 468 2185 l470 2176 -272 478 c-149 263 -272
479 -273 481 -1 1 -157 7 -346 12 -530 15 -1386 53 -1484 65 -34 5 -62 25
-185 135 -79 71 -146 128 -147 126 -1 -1 2 -53 7 -116 6 -62 8 -115 5 -118
-10 -11 -702 44 -1255 98 -3593 355 -6555 1122 -8233 2131 -126 76 -357 229
-357 236 0 3 12 -2 26 -12 14 -9 105 -61 202 -116z m31331 -639 c418 -499 735
-955 1022 -1470 79 -142 95 -178 86 -190 -7 -8 -124 -149 -261 -313 l-248
-297 110 -233 c183 -385 278 -611 377 -897 183 -533 274 -1008 294 -1535 27
-706 -80 -1451 -333 -2325 -63 -217 -104 -342 -90 -275 3 17 18 93 34 170 238
1174 118 2438 -345 3665 -371 981 -963 1953 -1737 2850 l-125 145 216 220
c238 242 433 449 616 654 l120 133 59 -63 c32 -35 125 -143 205 -239z m-8966
-900 l548 -504 -588 -103 c-323 -57 -796 -139 -1050 -182 l-462 -78 -423 113
c-233 62 -431 117 -442 122 -24 10 1383 292 1942 388 56 10 102 21 102 25 0 6
-251 718 -288 819 -3 8 21 -10 54 -40 33 -30 306 -282 607 -560z m-838 543
c-49 -25 -160 -77 -245 -115 -1460 -653 -3673 -1093 -6320 -1257 -495 -31
-1162 -61 -1365 -61 l-101 0 -318 168 -319 167 324 7 c1896 39 3877 188 5354
404 1018 148 2019 376 2790 635 132 45 247 85 255 90 8 4 20 8 25 8 6 0 -30
-21 -80 -46z m-10259 -448 c98 -116 185 -218 193 -228 12 -16 9 -17 -55 -17
l-69 0 -100 177 c-158 280 -168 299 -158 288 5 -5 90 -105 189 -220z m16299
-277 c-3 -7 -56 -305 -119 -663 -845 -4797 -1465 -9623 -2000 -15560 -213
-2357 -394 -4630 -706 -8870 -349 -4744 -379 -5134 -388 -5201 l-7 -51 -1877
3315 c-1033 1824 -1877 3316 -1875 3317 1 1 769 -1028 1706 -2286 938 -1259
1707 -2287 1709 -2284 3 2 11 129 18 282 137 2823 310 5487 534 8213 45 539
119 1408 126 1465 l5 50 -65 -117 c-657 -1181 -1767 -1914 -3171 -2092 -393
-50 -941 -53 -1310 -7 -33 4 57 6 200 3 738 -14 1367 115 1970 402 1456 694
2440 2285 2645 4276 11 107 25 323 30 480 9 245 40 658 56 755 3 17 -46 -69
-109 -190 -309 -599 -627 -1037 -1076 -1485 -214 -213 -369 -349 -575 -503
-1272 -949 -2950 -1318 -4776 -1051 -248 36 -818 150 -807 161 2 1 71 -6 153
-17 1064 -137 2142 -68 3099 200 1423 399 2557 1230 3252 2385 317 527 560
1160 687 1795 30 152 126 705 126 729 0 14 -23 25 -107 49 -653 190 -816 234
-1098 301 -235 55 -431 95 -674 137 -113 20 -207 37 -208 38 -2 2 -818 3582
-829 3636 -3 14 266 -671 598 -1522 332 -850 606 -1549 610 -1553 3 -4 78 -22
165 -40 346 -73 649 -156 1370 -377 255 -78 465 -139 468 -137 2 3 36 286 75
630 304 2686 658 5562 1243 10087 23 182 41 332 39 332 -2 0 -65 -23 -140 -51
-277 -103 -882 -278 -1300 -377 -129 -30 -207 -53 -211 -62 -4 -8 -415 -1726
-912 -3818 -497 -2092 -905 -3799 -906 -3795 -1 4 262 1788 586 3963 l587
3954 60 14 c227 52 690 170 849 216 720 207 1402 481 2115 850 91 47 166 86
167 86 1 0 0 -6 -2 -12z m-32722 -337 c777 -709 1471 -1842 1931 -3154 160
-456 398 -1347 366 -1367 -6 -4 -99 -30 -208 -60 -108 -29 -200 -56 -205 -59
-4 -4 344 -178 774 -387 l782 -379 -107 -3 c-59 -1 -282 1 -494 6 -213 5 -388
9 -388 8 -1 0 6 -66 16 -146 56 -441 74 -775 67 -1283 -8 -594 -47 -960 -158
-1466 -236 -1076 -769 -2067 -1521 -2832 -481 -488 -998 -696 -1617 -652 -50
3 -90 8 -88 9 2 2 41 10 88 19 206 36 379 124 619 314 119 94 484 458 613 611
425 505 727 1011 970 1626 265 670 412 1383 458 2214 13 239 7 877 -11 1100
-66 842 -207 1612 -446 2444 -355 1236 -917 2491 -1541 3444 -62 95 -113 176
-113 179 0 7 48 -35 213 -186z m24717 -176 c250 -147 462 -274 470 -281 13
-12 13 -14 0 -14 -8 0 -89 -11 -180 -25 -713 -106 -1689 -214 -2490 -274 -417
-32 -1480 -95 -1525 -90 -5 1 51 9 125 20 787 108 1573 245 2620 456 770 155
777 156 786 165 7 7 -76 104 -216 252 -36 38 -60 67 -55 64 6 -3 215 -126 465
-273z m9973 113 c430 -501 831 -1076 1125 -1613 83 -153 212 -412 212 -427 0
-7 -89 -120 -198 -250 l-199 -238 19 -102 c81 -452 144 -1070 169 -1653 13
-307 7 -1032 -11 -1300 -58 -888 -183 -1641 -397 -2389 -32 -109 -59 -194 -61
-188 -1 5 8 81 22 168 335 2132 232 4317 -290 6179 -166 593 -407 1240 -629
1697 l-46 93 80 78 c44 42 83 77 85 77 3 0 56 -60 119 -132z m3013 -361 c116
-228 266 -592 362 -882 540 -1622 376 -3227 -478 -4670 -101 -172 -116 -189
-52 -64 241 474 422 1169 496 1904 29 284 37 421 43 760 18 996 -116 1991
-393 2915 -48 161 -48 158 -34 140 6 -8 31 -54 56 -103z m-9637 -671 c-17 -16
-996 -315 -1359 -414 l-215 -59 -6 -34 c-4 -19 -206 -1376 -450 -3016 -244
-1640 -445 -2980 -447 -2979 -3 3 436 6122 443 6182 l6 40 137 18 c183 23
1015 143 1432 205 414 62 472 69 459 57z m5704 -301 c700 -1889 878 -4286 491
-6610 -69 -417 -173 -894 -275 -1270 -45 -164 -52 -183 -83 -210 -328 -289
-633 -520 -1079 -818 -220 -148 -576 -371 -581 -366 -7 7 113 1002 121 1010 5
4 98 67 208 141 401 268 737 527 969 746 l58 56 44 170 c249 981 414 2646 414
4181 0 1124 -84 2064 -246 2755 -23 98 -73 280 -90 325 -4 11 -5 18 -1 15 3
-3 26 -59 50 -125z m-34610 25 c95 -44 188 -88 207 -97 33 -17 37 -25 68 -128
52 -173 147 -551 192 -770 255 -1236 285 -2450 90 -3610 -236 -1403 -805
-2643 -1639 -3573 l-89 -100 238 -293 c131 -162 236 -296 234 -298 -7 -7 -478
232 -698 354 -114 64 -280 159 -367 211 l-159 95 119 132 c928 1026 1567 2372
1845 3885 105 566 150 1078 150 1687 0 720 -65 1321 -215 1989 -36 157 -135
528 -154 579 -4 9 -4 17 -1 17 4 0 84 -36 179 -80z m26091 -162 c7 -68 317
-6081 313 -6084 -2 -2 -206 1336 -455 2973 -249 1637 -454 2978 -456 2980 -2
3 -177 -45 -388 -106 -885 -254 -1628 -441 -2508 -631 -157 -34 -288 -65 -291
-68 -3 -4 -509 -1401 -1124 -3104 -615 -1704 -1120 -3097 -1121 -3095 -4 4
1368 6722 1375 6728 3 4 85 12 181 19 1181 77 2938 249 4155 404 348 45 312
47 319 -16z m-27024 -1333 c-53 -1387 -315 -2569 -804 -3635 -339 -737 -832
-1427 -1367 -1916 -195 -179 -206 -187 -223 -177 -26 15 -436 357 -436 364 0
4 44 45 98 91 644 560 1200 1256 1640 2054 34 62 113 215 175 340 497 1005
809 2144 904 3304 l18 215 3 -175 c2 -96 -2 -305 -8 -465z m38055 155 c179
-498 295 -1008 345 -1520 18 -184 24 -644 11 -835 -76 -1091 -461 -2100 -1163
-3047 -61 -82 -112 -148 -115 -148 -3 0 -1 6 5 13 23 28 119 211 173 329 340
743 596 1820 698 2936 38 414 45 583 46 1062 0 562 -18 851 -80 1287 -14 94
-25 175 -24 180 1 15 40 -82 104 -257z m-11405 -6993 c532 -1436 587 -1578
605 -1573 11 2 108 26 215 54 107 27 286 67 397 88 l201 39 61 200 c34 110
243 799 466 1530 222 732 404 1322 405 1312 0 -20 -429 -3540 -433 -3543 -1
-1 -87 -7 -192 -13 -500 -30 -941 -110 -1350 -246 -88 -29 -161 -51 -163 -50
-2 2 -935 4089 -957 4190 -9 43 87 -213 745 -1988z m-1096 -613 l-318 -2599
-160 -155 c-438 -426 -863 -940 -1370 -1660 -154 -219 -173 -241 -125 -155
173 317 353 619 535 898 l103 157 823 3060 c452 1682 824 3057 826 3056 2 -2
-140 -1173 -314 -2602z m-4969 -239 c520 -2042 820 -3805 929 -5465 33 -494
40 -733 40 -1350 1 -619 -6 -838 -39 -1320 -100 -1450 -371 -2844 -822 -4225
-76 -234 -244 -707 -249 -702 -2 2 21 150 51 329 436 2611 567 5390 399 8513
-71 1339 -226 3031 -409 4476 -14 108 -25 200 -24 205 1 16 19 -47 124 -461z
m7054 -14829 c-127 -1116 -538 -2259 -1228 -3411 -878 -1468 -2174 -2824
-3451 -3612 -287 -177 -291 -187 64 170 495 497 856 882 1252 1333 1604 1830
2659 3586 3325 5536 30 86 55 155 56 154 1 -1 -7 -77 -18 -170z m-4108 -392
c223 -113 393 -551 418 -1077 20 -435 -42 -805 -185 -1094 -65 -132 -154 -236
-236 -277 -72 -36 -164 -36 -236 0 -177 88 -333 410 -397 824 -25 160 -31 531
-11 703 44 379 147 669 294 828 119 128 227 157 353 93z m-1183 -2069 c144
-67 267 -286 319 -569 26 -142 24 -419 -5 -564 -44 -218 -109 -360 -217 -468
-98 -99 -182 -125 -284 -89 -159 56 -286 264 -348 571 -25 125 -25 433 0 559
36 178 80 297 152 405 108 162 247 218 383 155z m-15790 -3985 c352 -784 903
-1717 1566 -2652 89 -125 166 -238 173 -250 8 -15 135 -1761 363 -4968 193
-2720 354 -4972 357 -5005 l7 -60 7 60 c4 33 155 1881 335 4107 181 2227 331
4048 334 4047 9 -1 1151 -1429 1474 -1844 198 -255 540 -709 810 -1077 104
-142 193 -258 196 -258 4 0 163 168 352 373 1459 1578 2421 2713 4226 4989
295 372 539 675 541 672 2 -2 197 -2376 433 -5276 235 -2899 430 -5273 432
-5276 8 -7 1014 466 1281 603 1164 595 2279 1288 3290 2045 2098 1569 3862
3488 5297 5761 341 539 648 1073 988 1714 96 182 110 204 105 165 -3 -25 -14
-124 -26 -220 -50 -422 -149 -930 -265 -1365 -97 -360 -251 -835 -363 -1117
l-29 -73 -171 -5220 c-95 -2871 -175 -5238 -179 -5260 -5 -25 -136 1413 -375
4095 -203 2274 -371 4154 -375 4177 l-7 42 -150 -226 c-163 -247 -394 -575
-549 -778 l-98 -129 -213 -2354 c-117 -1294 -215 -2355 -216 -2357 -2 -2 -143
776 -313 1728 -170 953 -310 1733 -311 1735 -2 2 -47 -43 -101 -100 -1057
-1108 -2218 -2092 -3524 -2985 -238 -163 -622 -412 -827 -538 l-113 -68 0
-931 c0 -512 7 -2456 16 -4321 l16 -3390 -342 -1950 c-188 -1072 -344 -1952
-346 -1954 -2 -2 -74 4 -161 13 -330 34 -708 45 -958 27 -60 -5 -112 -7 -114
-4 -3 2 10 209 28 461 68 972 99 1557 131 2507 18 497 24 1946 11 2525 -43
1972 -172 3973 -456 7084 -25 268 -45 495 -45 504 0 8 -2 13 -5 11 -20 -21
-122 -2297 -155 -3469 -33 -1170 -38 -3362 -11 -4340 42 -1486 117 -3116 237
-5197 4 -62 4 -113 0 -113 -31 0 -331 -47 -451 -71 -477 -94 -900 -234 -1378
-453 -54 -25 -79 -32 -82 -23 -4 14 -129 1207 -175 1681 -58 588 -140 1510
-140 1569 0 36 -14 8 -95 -183 -460 -1100 -936 -2182 -1311 -2980 -247 -527
-1039 -2095 -1334 -2644 l-48 -89 -7 79 c-63 749 -309 1442 -752 2119 -652
994 -1688 1853 -2899 2403 l-72 33 -6 77 c-4 42 -36 586 -71 1207 -101 1765
-165 2738 -180 2753 -2 2 -6 -5 -9 -15 -16 -52 -205 -1278 -326 -2108 -58
-399 -241 -1589 -245 -1594 -2 -1 -43 9 -92 24 -609 186 -1241 287 -1880 302
l-263 6 0 47 c0 26 -13 647 -30 1381 -52 2313 -100 4696 -205 10039 -122 6218
-195 9757 -240 11635 -8 341 -15 638 -14 660 0 38 1 39 12 15 6 -14 44 -99 85
-190z m22737 -2305 c166 -234 414 -605 552 -825 424 -675 705 -1212 1279
-2443 l214 -458 0 -9213 0 -9213 -77 -12 c-43 -7 -158 -28 -256 -48 -98 -19
-180 -33 -182 -31 -1 1 -57 4193 -123 9313 l-120 9310 -695 1845 c-382 1015
-707 1877 -721 1915 -16 40 -21 64 -13 55 8 -8 72 -96 142 -195z m254 -5450
c686 -3808 731 -5868 202 -9285 -82 -531 -144 -910 -149 -906 -1 2 8 129 22
282 214 2336 259 4061 161 6134 -51 1072 -145 2328 -310 4130 -3 30 -3 51 -1
45 3 -5 37 -185 75 -400z m-3408 -7057 c-170 -2243 -207 -4293 -116 -6323 34
-748 75 -1379 190 -2935 104 -1405 127 -1735 123 -1772 -2 -22 -19 37 -51 172
-425 1797 -619 3104 -697 4685 -18 355 -24 1229 -11 1620 50 1560 214 2948
563 4772 6 35 13 61 15 59 3 -2 -5 -127 -16 -278z m159 -268 c322 -1490 534
-2762 644 -3855 215 -2140 105 -4049 -354 -6125 -70 -319 -222 -922 -230 -913
-4 4 12 164 36 355 170 1357 264 2464 304 3578 13 357 13 1493 0 1865 -49
1412 -176 2869 -440 5039 -33 269 -60 492 -59 495 2 10 14 -46 99 -439z
m-4326 -1780 c81 -446 254 -1483 535 -3220 506 -3116 783 -4769 1035 -6175 25
-137 44 -250 43 -251 -1 -1 -63 -11 -137 -24 -151 -24 -322 -61 -421 -90 l-65
-20 -132 73 c-89 48 -133 79 -136 92 -3 11 -181 2239 -396 4950 -215 2712
-393 4955 -395 4985 -3 30 -3 51 0 45 2 -5 34 -170 69 -365z m7901 -4785 c399
-1611 728 -2937 731 -2947 4 -13 -15 -22 -98 -47 -159 -49 -379 -127 -526
-188 -73 -30 -136 -52 -140 -49 -6 6 -702 6120 -701 6161 0 11 2 16 4 10 3 -5
331 -1328 730 -2940z m-859 -585 l-95 -3175 -23 -15 c-54 -35 -280 -208 -356
-272 -46 -39 -85 -68 -86 -67 -2 2 10 111 25 243 172 1462 410 3973 596 6291
22 269 29 329 31 260 1 -49 -40 -1519 -92 -3265z m-25446 2090 c794 -41 1514
-206 2123 -488 l87 -41 0 -38 c0 -21 16 -701 36 -1511 20 -810 34 -1475 31
-1478 -3 -3 -81 -23 -173 -44 -670 -154 -1271 -409 -1833 -777 -330 -216 -584
-425 -897 -737 -391 -392 -705 -797 -996 -1286 -87 -147 -221 -391 -216 -395
2 -2 25 22 52 53 177 207 441 464 686 670 929 778 2148 1310 3390 1481 341 47
478 55 900 56 423 0 573 -10 890 -56 1456 -211 2665 -910 3509 -2027 335 -444
628 -1005 826 -1582 52 -154 134 -426 149 -496 l7 -31 -172 38 c-95 21 -269
54 -388 74 -119 20 -216 37 -217 38 0 1 -22 71 -47 154 -87 282 -185 531 -322
808 -240 490 -517 879 -884 1245 -251 251 -480 431 -751 594 -127 77 -397 212
-405 204 -3 -2 48 -45 113 -95 594 -460 998 -1047 1192 -1733 81 -289 118
-542 127 -867 l6 -233 -135 0 c-74 0 -217 -5 -319 -11 -101 -7 -215 -12 -252
-13 l-69 -1 -47 130 c-205 560 -458 1012 -785 1405 -234 281 -483 506 -761
689 -125 82 -321 189 -330 179 -2 -2 21 -24 53 -48 90 -71 334 -313 425 -422
400 -483 641 -1063 711 -1715 8 -76 18 -183 21 -239 l6 -101 -98 -23 c-839
-193 -1704 -610 -2438 -1175 -82 -63 -153 -115 -156 -115 -4 0 -91 57 -194
126 -282 188 -511 321 -810 469 -659 326 -1250 496 -1975 567 -86 8 -274 13
-520 13 -422 -1 -559 -10 -950 -67 -118 -17 -223 -31 -234 -32 -16 -1 -23 19
-52 153 -196 911 -676 1967 -1228 2701 -292 389 -651 753 -1001 1017 -599 451
-1308 719 -2070 783 -135 11 -549 13 -645 3 l-62 -6 118 -33 c477 -130 1084
-439 1538 -782 367 -278 723 -634 996 -997 501 -667 847 -1492 1014 -2420 32
-176 73 -480 82 -605 l7 -95 -39 -14 c-29 -10 -285 -131 -336 -158 -3 -2 -23
47 -43 109 -142 430 -333 825 -570 1183 -155 232 -300 410 -490 601 -180 180
-319 295 -512 424 -122 81 -330 197 -338 188 -2 -2 24 -26 57 -53 95 -77 278
-256 371 -363 416 -480 662 -1045 754 -1727 31 -232 24 -765 -13 -947 -4 -21
-1 -27 15 -30 18 -3 12 -14 -47 -88 -191 -243 -344 -514 -470 -831 -27 -68
-52 -133 -56 -144 -3 -11 69 54 162 145 173 172 309 286 492 415 317 222 715
419 1088 539 128 41 359 101 429 112 l48 7 -60 -53 c-323 -287 -650 -691 -901
-1112 -86 -144 -239 -437 -232 -444 2 -2 44 46 92 107 647 810 1606 1349 2651
1488 266 35 663 42 910 16 726 -77 1444 -337 2147 -777 70 -44 130 -84 133
-89 3 -5 -23 -41 -57 -81 -666 -763 -1139 -1806 -1293 -2848 -39 -261 -69
-693 -46 -645 6 11 42 94 82 185 995 2298 2810 3808 5022 4180 998 168 2015
96 3056 -216 906 -272 1840 -761 2647 -1389 71 -56 136 -105 144 -110 7 -5 -2
20 -22 56 -66 120 -486 904 -498 931 -11 24 -6 42 55 185 376 881 948 1712
1608 2332 908 853 1965 1369 3097 1511 746 94 1529 17 2280 -223 69 -22 73
-25 50 -34 -316 -130 -769 -379 -1082 -596 -320 -222 -533 -401 -824 -691
-372 -373 -651 -732 -888 -1144 -171 -298 -175 -319 -40 -197 570 510 1294
950 2081 1264 273 108 617 222 913 302 1459 392 3033 408 4445 44 1838 -473
3241 -1538 3973 -3017 170 -344 318 -750 413 -1133 28 -115 54 -212 56 -215 9
-9 -7 447 -22 620 -58 675 -227 1293 -510 1866 l-83 169 48 130 c215 585 522
1081 925 1494 220 225 421 391 680 561 119 78 115 79 -50 15 -707 -273 -1377
-709 -1800 -1172 -92 -100 -233 -273 -255 -313 -7 -12 -13 -9 -32 15 -12 17
-65 79 -116 139 l-94 108 42 107 c326 818 854 1517 1527 2020 78 59 202 144
274 189 73 45 129 82 125 82 -17 0 -336 -126 -469 -184 -873 -388 -1587 -919
-2031 -1510 -37 -50 -71 -96 -75 -104 -7 -12 -26 -1 -95 52 -47 37 -86 69 -86
71 0 11 110 246 152 324 422 785 1111 1431 1963 1842 730 352 1605 541 2500
542 301 0 469 -10 714 -44 702 -97 1335 -351 1856 -743 433 -325 807 -765
1037 -1216 32 -63 58 -111 58 -107 0 4 -24 81 -54 170 -152 458 -403 919 -712
1307 -136 171 -441 477 -604 606 -416 330 -827 540 -1360 694 -193 56 -181 40
-156 209 60 402 251 945 531 1516 171 348 323 602 466 780 150 187 467 481
711 658 992 722 2292 940 3533 592 1252 -351 2263 -1221 2725 -2346 452 -1101
361 -2403 -260 -3684 -357 -739 -912 -1412 -1574 -1908 -48 -37 -83 -67 -77
-67 21 0 255 92 366 145 292 137 633 364 955 635 146 123 417 375 431 402 6
11 13 18 15 15 3 -2 -63 -226 -147 -496 -83 -271 -149 -494 -146 -497 13 -13
377 386 503 551 273 359 375 600 574 1353 l11 43 107 -57 c530 -282 943 -621
1274 -1045 575 -739 870 -1727 826 -2774 -4 -93 -6 -171 -4 -172 5 -6 71 180
109 307 101 336 185 821 221 1273 8 98 17 181 20 184 9 9 229 -35 431 -87 331
-84 565 -170 870 -320 1064 -523 1828 -1415 2213 -2586 84 -255 177 -648 212
-899 6 -44 13 -92 16 -107 l6 -28 -644 0 -643 0 -34 93 c-48 132 -133 318
-202 443 -63 114 -220 356 -226 350 -2 -2 1 -32 7 -68 32 -202 68 -741 53
-797 -5 -21 -6 -21 -862 -21 l-856 0 -775 -959 c-426 -527 -776 -958 -776
-957 -1 0 6 44 17 96 135 690 127 1378 -22 1990 -154 629 -447 1213 -882 1755
-90 112 -274 319 -335 379 l-41 39 40 -121 c252 -775 393 -1734 376 -2567 -11
-537 -70 -992 -187 -1443 -22 -84 -40 -155 -40 -158 0 -2 -207 -4 -461 -4
l-460 0 6 43 c29 211 34 709 10 963 -77 805 -336 1562 -796 2329 -123 204
-137 221 -89 100 345 -854 392 -1895 131 -2846 -41 -148 -130 -414 -175 -524
l-24 -60 -2466 -3 c-1356 -1 -2466 1 -2466 5 0 5 -10 19 -21 33 l-21 25 6 -31
5 -31 -1527 -5 c-840 -2 -3325 -2 -5523 0 l-3996 5 -7 61 c-12 125 -49 355
-56 351 -4 -2 -10 -39 -14 -82 -3 -43 -14 -135 -23 -204 l-16 -126 -3941 -6
c-2168 -4 -4164 -4 -4437 0 l-496 6 -53 130 c-75 184 -251 533 -364 721 -52
88 -99 163 -104 168 -5 5 6 -46 25 -114 65 -239 145 -641 168 -845 l7 -60
-2123 -6 c-1168 -3 -6816 -5 -12551 -4 l-10427 2 -20 75 c-106 394 -209 918
-280 1430 -48 346 -75 597 -127 1175 -9 103 -14 86 -53 -189 -86 -602 -130
-1307 -117 -1899 l7 -308 -23 5 c-13 3 -63 12 -113 21 -1297 228 -1847 1320
-1560 3095 31 187 83 424 136 618 21 79 39 146 39 150 0 11 -118 -109 -219
-223 -523 -589 -808 -1232 -838 -1893 l-6 -143 -22 21 c-21 20 -32 20 -607 20
l-585 0 -6 44 c-17 125 -29 430 -23 610 54 1693 949 3198 2411 4053 389 227
825 413 1280 546 l50 14 1 -296 c1 -400 31 -698 109 -1059 241 -1115 928
-2175 1895 -2923 121 -93 328 -238 342 -239 5 0 -12 32 -37 70 -517 806 -819
1675 -875 2515 -100 1506 596 3076 2118 4778 68 76 121 141 119 144 -8 7 -256
-79 -398 -138 -498 -210 -930 -506 -1319 -906 -227 -233 -388 -438 -532 -680
-40 -67 -74 -120 -76 -119 -6 6 93 299 149 441 600 1528 2072 2594 3954 2864
296 42 486 55 850 55 368 1 504 -7 825 -50 808 -107 1585 -388 2214 -801 643
-422 1131 -964 1467 -1629 l96 -191 6 70 c9 102 -10 332 -39 482 -154 791
-774 1593 -1709 2210 -330 218 -718 415 -1045 529 -58 20 -113 40 -123 44 -15
6 -11 17 34 92 244 405 581 755 1054 1092 1192 851 3009 1350 4615 1268z
m29940 -14 c512 -76 927 -249 1330 -552 198 -149 191 -127 68 -220 -120 -92
-221 -177 -335 -286 -46 -43 -86 -78 -91 -78 -4 0 -66 25 -137 56 -328 142
-639 238 -970 299 -235 43 -368 56 -657 62 l-278 6 0 333 0 332 48 10 c67 15
258 42 360 52 130 13 539 4 662 -14z m-771 -1515 c331 -65 610 -220 801 -444
65 -76 150 -198 150 -214 0 -6 -25 -56 -56 -113 -292 -537 -618 -1429 -691
-1889 l-18 -113 -60 5 c-33 4 -140 12 -237 19 l-178 12 0 1385 0 1384 96 -7
c53 -4 140 -15 193 -25z m-46679 -12899 l0 -258 1573 -4300 c866 -2364 1589
-4342 1607 -4394 67 -189 268 -559 416 -766 l64 -89 -1488 -3 c-818 -1 -1492
0 -1497 2 -6 2 -186 436 -399 965 l-389 961 -1863 0 c-1025 0 -1864 -1 -1864
-2 0 -2 -157 -435 -349 -963 l-348 -960 -1502 -3 c-825 -1 -1501 0 -1501 3 0
3 22 32 49 64 145 175 397 640 534 986 68 169 2847 7724 2847 7737 0 5 -220
289 -488 631 -269 342 -492 628 -496 635 -6 9 506 12 2543 12 l2551 0 0 -258z
m63989 207 c-30 -78 -68 -236 -92 -382 -21 -130 -21 -154 -24 -1514 l-4 -1383
1686 0 1685 0 -3 1338 -3 1337 -27 110 c-15 60 -52 200 -82 311 -30 111 -55
209 -55 218 0 15 170 16 1955 16 1075 0 1955 -2 1955 -5 0 -2 -223 -288 -495
-635 l-495 -632 0 -3988 c0 -3966 0 -3990 20 -4094 29 -149 152 -569 205 -698
7 -17 -72 -18 -1569 -18 -867 0 -1576 3 -1576 6 0 4 12 39 26 78 37 103 90
311 119 469 l25 138 0 1695 0 1694 -1685 0 -1685 0 0 -1806 0 -1805 56 -182
c31 -100 63 -194 70 -209 8 -15 14 -38 14 -53 l0 -25 -1510 0 c-1089 0 -1510
3 -1510 11 0 6 23 117 51 246 27 129 58 283 67 341 15 98 17 457 20 4197 2
2709 0 4173 -7 4335 -11 255 -33 431 -91 735 -16 88 -33 170 -36 183 l-6 22
1510 0 1510 0 -19 -51z m-53309 -2944 c0 -904 -2 -1045 -14 -1045 -8 0 -191
38 -406 85 l-391 85 -1160 0 -1159 0 0 -2864 0 -2864 29 -89 c33 -101 102
-277 131 -334 11 -21 20 -41 20 -44 0 -3 -695 -5 -1544 -5 l-1544 0 79 248 79
247 0 2853 0 2852 -1210 0 -1210 0 -340 -85 c-187 -47 -344 -85 -350 -85 -7 0
-10 340 -10 1045 l0 1045 4500 0 4500 0 0 -1045z m3450 1040 c0 -2 -31 -158
-70 -346 l-70 -343 0 -993 0 -993 1690 0 1691 0 -4 1048 -3 1047 -27 100 c-15
55 -54 184 -87 287 -33 102 -60 189 -60 192 0 3 714 6 1586 6 l1585 0 -7 -22
c-4 -13 -27 -68 -51 -123 -73 -165 -140 -336 -167 -430 l-26 -89 0 -3368 0
-3367 21 -108 c28 -146 102 -363 206 -600 4 -10 -314 -13 -1571 -13 -867 0
-1576 2 -1576 4 0 2 13 32 29 67 42 92 97 275 126 414 l25 120 -2 1340 -3
1340 -1687 3 -1688 2 0 -1454 0 -1454 55 -144 c30 -79 62 -155 70 -170 8 -14
15 -36 15 -47 l0 -21 -1510 0 -1510 0 6 28 c4 15 22 83 41 152 52 193 71 286
82 399 15 144 15 6671 0 6866 -5 77 -21 199 -35 270 -26 134 -77 357 -89 388
-7 16 69 17 1504 17 831 0 1511 -2 1511 -5z m15360 -1234 c0 -788 -4 -1277
-10 -1342 -31 -306 -139 -653 -312 -1006 -321 -654 -821 -1190 -1226 -1313
-40 -12 -72 -24 -72 -26 0 -9 1051 -1288 1359 -1654 359 -427 635 -723 1092
-1174 192 -189 349 -349 349 -355 0 -8 -494 -10 -1807 -9 l-1807 3 -905 1078
-904 1077 -813 0 -814 0 0 -777 c0 -868 0 -868 75 -1215 19 -88 35 -161 35
-164 0 -2 -661 -4 -1470 -4 -808 0 -1470 2 -1470 3 0 2 9 30 20 63 36 103 50
168 85 400 l35 226 0 3335 c0 3755 7 3419 -80 3707 -27 89 -64 212 -83 274
l-35 112 4379 0 4379 0 0 -1239z m3702 902 l-2 -338 725 -815 c399 -448 734
-823 744 -833 18 -18 41 7 732 790 393 444 726 823 742 841 l27 34 0 329 0
329 1651 0 c1317 0 1650 -3 1646 -12 -56 -134 -184 -460 -213 -546 l-39 -114
-1587 -1846 -1587 -1847 -1 -235 c0 -129 -7 -460 -15 -735 -17 -584 -19 -1199
-5 -1440 27 -448 90 -862 186 -1212 19 -69 34 -127 34 -129 0 -2 -706 -4
-1570 -4 -873 0 -1570 4 -1570 9 0 4 11 64 25 132 61 297 112 650 140 954 37
413 41 723 28 2018 l-6 667 -1507 1834 -1507 1834 -33 98 c-18 55 -75 204
-126 333 -52 129 -94 236 -94 238 0 2 717 3 1593 3 l1592 0 -3 -337z m9708
331 c0 -3 -36 -101 -79 -217 -44 -117 -87 -246 -97 -287 -17 -71 -18 -215 -21
-2877 l-3 -2803 1971 0 1970 0 229 54 c126 30 317 80 424 110 106 31 196 56
200 56 3 0 6 -484 6 -1075 l0 -1075 -3835 0 c-2109 0 -3835 2 -3835 5 0 3 18
38 39 78 51 93 94 218 123 354 l23 108 3 3498 2 3498 -74 217 c-41 119 -88
250 -105 290 l-30 72 1545 0 c849 0 1544 -3 1544 -6z m8200 0 c0 -4 -18 -63
-41 -133 -58 -181 -115 -410 -131 -526 -11 -82 -13 -688 -13 -3320 0 -3604 -6
-3316 71 -3628 42 -171 114 -485 114 -498 0 -5 -636 -9 -1570 -9 -1565 0
-1570 0 -1570 20 0 25 43 230 104 491 25 107 55 251 68 320 l23 124 0 3110 0
3110 -654 465 -653 465 1423 5 c783 3 1740 6 2127 8 386 1 702 -1 702 -4z
m9460 -1044 c0 -835 -3 -1048 -12 -1045 -7 3 -191 43 -408 90 l-394 85 -1163
0 -1163 0 2 -2867 3 -2868 58 -169 c32 -93 71 -196 88 -229 16 -33 28 -62 26
-63 -2 -2 -695 -3 -1539 -2 l-1536 3 79 250 79 250 0 2848 0 2847 -1210 0
-1210 0 -340 -85 c-187 -47 -344 -85 -350 -85 -7 0 -10 340 -10 1045 l0 1045
4500 0 4500 0 0 -1050z m2443 -8952 c-6 -7 -432 -551 -948 -1208 -515 -657
-938 -1196 -939 -1197 -2 -2 -99 100 -217 227 l-214 229 -3765 -2 c-3469 -3
-3770 -4 -3830 -19 -220 -56 -354 -138 -525 -320 -308 -327 -521 -803 -610
-1363 -23 -139 -31 -463 -16 -611 69 -670 331 -1260 714 -1608 198 -180 386
-269 620 -295 61 -7 426 -11 1002 -11 l905 0 0 708 0 707 -778 438 c-427 240
-803 452 -835 470 l-58 33 2308 -4 c1270 -2 2309 -5 2310 -6 2 -1 -29 -112
-67 -247 -39 -134 -80 -287 -92 -339 l-22 -95 -3 -1802 -4 -1803 -2932 0
c-3104 0 -3028 -1 -3208 45 -344 87 -625 254 -958 571 -512 488 -939 1198
-1211 2014 -205 614 -293 1185 -261 1695 53 831 320 1665 752 2354 172 274
342 484 571 706 419 408 806 621 1298 712 90 17 359 18 4830 23 2604 3 5063 6
5464 8 582 2 726 -1 719 -10z m-49783 -1013 c0 -975 -1 -1015 -18 -1015 -10 0
-65 18 -123 39 -57 22 -140 44 -184 51 -58 8 -683 10 -2265 8 l-2185 -3 -80
-23 c-175 -49 -327 -145 -486 -303 -365 -365 -613 -968 -661 -1607 -38 -509
119 -1156 388 -1600 111 -183 293 -388 453 -507 88 -67 229 -137 330 -164 140
-39 249 -42 1181 -39 l895 3 0 704 0 705 -945 459 c-520 252 -949 463 -954
468 -6 5 919 9 2417 9 1683 0 2427 -3 2427 -10 0 -6 -32 -122 -71 -258 -125
-433 -112 -186 -116 -2240 l-4 -1782 -2977 2 -2977 3 -109 23 c-402 86 -725
278 -1103 660 -712 719 -1245 1879 -1385 3012 -20 162 -17 699 5 875 60 487
199 1006 377 1415 39 91 74 173 77 183 5 16 -47 17 -989 17 -547 0 -1366 -3
-1820 -7 l-825 -6 -53 -221 c-29 -122 -55 -226 -59 -232 -3 -7 -420 515 -936
1172 -511 651 -936 1193 -944 1204 -13 20 1 20 6853 20 l6866 0 0 -1015z
m8030 805 l0 -209 101 -228 c153 -344 341 -784 771 -1803 969 -2299 1357
-3170 1839 -4130 327 -652 550 -1048 801 -1422 l78 -118 -1460 0 c-803 0
-1460 1 -1460 3 0 2 -5 30 -11 63 -35 195 -178 586 -472 1289 l-84 200 -2041
3 c-1844 2 -2042 1 -2056 -14 -9 -8 -19 -27 -22 -42 -11 -46 -253 -518 -513
-1002 -138 -256 -255 -473 -261 -482 -10 -17 -85 -18 -1355 -18 -740 0 -1345
2 -1345 4 0 3 754 1590 1676 3527 l1675 3523 -98 100 c-55 56 -229 236 -388
401 -159 165 -347 360 -419 433 l-131 132 2588 0 2587 0 0 -210z m8230 -1751
c614 -1076 1122 -1966 1130 -1978 14 -20 79 90 1155 1956 l1140 1978 1566 3
1566 2 -9 -52 c-5 -29 -27 -107 -48 -174 -22 -67 -44 -159 -50 -205 -17 -128
-8 -7035 9 -7144 6 -44 31 -185 54 -312 l43 -233 -1454 0 c-1381 0 -1454 1
-1447 18 10 24 91 476 115 647 20 137 20 180 18 2037 l-3 1897 -104 -182
c-135 -236 -1020 -1797 -1866 -3292 -367 -649 -668 -1181 -670 -1183 -1 -1
-598 1044 -1326 2323 -728 1279 -1326 2325 -1329 2325 -3 0 -4 -851 -2 -1892
l3 -1891 44 -241 c24 -133 60 -304 81 -381 20 -77 39 -150 41 -163 l5 -22
-1467 0 c-1392 0 -1466 1 -1461 18 3 9 19 72 36 139 l30 122 10 1368 c5 752
14 1739 20 2193 5 454 12 1151 15 1550 3 399 8 934 11 1190 l5 465 -422 520
c-232 286 -428 528 -437 538 -14 16 77 17 1933 15 l1948 -3 1117 -1956z
m10077 1946 c-17 -44 -110 -365 -131 -452 -53 -222 -51 -56 -51 -3518 0 -3623
-6 -3313 76 -3649 48 -194 109 -460 109 -475 0 -8 -445 -11 -1570 -11 -1565 0
-1570 0 -1570 20 0 11 18 102 41 203 23 100 66 315 97 477 l57 295 2 3083 3
3083 -36 237 c-41 277 -75 464 -109 609 -14 58 -25 107 -25 109 0 2 700 4
1556 4 1362 0 1555 -2 1551 -15z m3256 -132 c200 -239 2153 -2828 2828 -3748
497 -678 470 -644 502 -645 l27 0 0 1878 c0 1174 -4 1919 -10 1990 -18 203
-65 376 -151 561 -27 57 -49 106 -49 107 0 2 682 4 1516 4 1281 0 1515 -2
1511 -14 -27 -69 -146 -540 -172 -679 -14 -74 -15 -431 -12 -3363 3 -3640 -3
-3323 68 -3647 24 -112 85 -324 116 -403 4 -12 -193 -14 -1399 -14 l-1403 0
-115 138 c-982 1176 -2172 2714 -3006 3882 -139 195 -269 371 -288 389 l-36
35 0 -1970 1 -1969 63 -252 64 -253 -1469 0 -1468 0 15 48 c47 150 93 327 103
392 9 56 11 966 8 3670 -3 3285 -5 3602 -20 3673 -23 112 -56 224 -83 284
l-23 53 1379 0 1379 0 124 -147z"/>
<path d="M35610 87617 c-174 -48 -330 -285 -414 -627 -159 -651 -39 -1477 259
-1775 72 -72 133 -100 215 -100 84 0 145 29 219 105 221 226 346 736 320 1303
-16 318 -74 569 -185 794 -112 227 -268 340 -414 300z"/>
<path d="M34860 85090 c-88 -46 -172 -174 -224 -340 -50 -158 -68 -294 -68
-510 0 -153 4 -220 20 -310 51 -283 150 -478 276 -542 57 -29 128 -21 188 20
204 140 320 682 244 1137 -46 276 -161 500 -281 550 -47 20 -113 18 -155 -5z"/>
<path d="M38665 81239 c-412 -1079 -751 -1968 -753 -1977 -2 -14 23 -23 145
-49 157 -35 403 -101 416 -112 7 -7 -36 -217 -46 -228 -3 -2 -63 14 -134 37
-239 77 -555 149 -808 184 -226 31 -515 56 -666 56 l-76 0 -12 108 c-27 234
-431 3539 -437 3571 -5 30 -104 -222 -694 -1763 -379 -989 -690 -1800 -692
-1801 -2 -1 -84 -8 -183 -14 -526 -34 -1094 -131 -1580 -272 -174 -51 -531
-163 -538 -169 -10 -9 48 -380 99 -640 208 -1057 641 -1970 1283 -2709 140
-161 397 -414 561 -550 589 -492 1296 -862 2078 -1085 204 -59 372 -98 597
-141 100 -19 240 -50 311 -70 435 -119 930 -199 1459 -235 202 -14 748 -14
977 0 671 41 1305 151 1933 336 162 48 1070 349 1070 355 0 4 -334 499 -886
1313 -856 1263 -1368 1901 -1946 2427 l-72 65 -321 2630 c-176 1446 -324 2644
-328 2661 -6 28 -106 -225 -757 -1928z"/>
<path d="M32544 76955 c32 -1279 445 -2598 1141 -3650 1097 -1658 2749 -2466
4570 -2235 1141 145 2331 681 3550 1599 166 124 495 390 484 391 -3 0 -48 -18
-100 -41 -470 -205 -1077 -424 -1544 -558 -1347 -386 -2523 -451 -3557 -195
-889 219 -1651 658 -2344 1349 -743 741 -1363 1718 -2054 3240 -73 160 -136
297 -142 305 -6 10 -7 -61 -4 -205z"/>
<path d="M37968 49210 c-4 -8 -16 -145 -28 -305 -11 -159 -39 -526 -60 -815
-170 -2277 -260 -3930 -321 -5925 -17 -548 -23 -2579 -10 -3165 33 -1484 104
-2703 231 -3970 65 -640 177 -1560 190 -1560 11 0 129 718 205 1245 230 1600
354 3151 396 4950 13 543 7 2009 -11 2520 -48 1442 -124 2630 -260 4105 -92
991 -316 2962 -332 2920z"/>
<path d="M35302 45818 c-334 -165 -375 -1387 -57 -1704 86 -87 164 -87 249 -1
133 134 205 398 213 777 7 329 -30 557 -122 745 -53 109 -91 157 -148 184 -55
27 -81 26 -135 -1z"/>
<path d="M34614 43990 c-293 -69 -512 -839 -491 -1720 9 -354 43 -623 113
-890 183 -700 524 -816 755 -257 211 513 261 1403 119 2107 -102 503 -300 807
-496 760z"/>
<path d="M10076 22004 c-4 -11 -243 -667 -531 -1459 -288 -792 -526 -1448
-530 -1457 -7 -17 49 -18 1080 -18 866 0 1086 3 1082 13 -2 6 -246 665 -542
1462 -295 798 -540 1456 -545 1464 -5 10 -9 9 -14 -5z"/>
<path d="M6360 17488 c-718 -1955 -827 -2244 -904 -2411 l-36 -77 836 2 836 3
334 920 c183 506 341 939 350 963 l16 42 2236 0 2237 -1 389 -964 389 -965
845 0 c800 0 844 1 837 18 -4 9 -31 85 -61 167 -30 83 -398 1088 -818 2235
l-763 2085 -742 3 c-727 2 -742 2 -736 -17 3 -11 84 -230 179 -488 l174 -468
-1856 -3 c-1020 -1 -1857 0 -1859 2 -3 2 289 819 343 960 6 14 -66 16 -738 16
l-744 0 -744 -2022z"/>
<path d="M73676 17313 c-2 -1209 -7 -2224 -11 -2255 l-7 -58 841 0 841 0 0
2040 0 2040 2230 0 2230 0 -1 -1952 c0 -1498 -3 -1973 -13 -2040 l-12 -88 863
0 c475 0 863 1 863 3 0 1 -8 36 -17 77 -16 69 -17 251 -23 2250 l-5 2175
-3887 3 -3887 2 -5 -2197z"/>
<path d="M17357 19503 c-4 -3 -7 -1018 -7 -2255 l0 -2248 830 0 830 0 0 2255
0 2255 -823 0 c-453 0 -827 -3 -830 -7z"/>
<path d="M23800 17293 c0 -1220 -3 -2235 -6 -2255 l-7 -38 837 0 836 0 0 1645
0 1645 2230 0 2230 0 0 -1645 0 -1645 841 0 841 0 -8 28 c-4 15 -9 1029 -11
2255 l-3 2227 -830 0 -829 0 -3 -77 -3 -78 -2227 -3 -2228 -2 0 80 0 80 -830
0 -830 0 0 -2217z"/>
<path d="M35630 19648 l0 -911 458 6 c768 11 1106 47 1432 156 268 89 460 198
626 354 330 311 463 632 500 1205 l6 102 -1511 0 -1511 0 0 -912z"/>
<path d="M33487 17298 c-3 -1217 -8 -2232 -12 -2255 l-7 -43 808 0 809 0 -3
1080 -3 1080 1218 -1 1218 0 905 -1080 904 -1079 1033 0 c568 0 1033 3 1033 6
0 4 -30 39 -67 78 -140 147 -387 433 -693 801 -695 836 -1747 2127 -1740 2135
2 3 209 44 460 92 296 56 471 94 500 108 201 97 509 430 709 767 91 154 251
483 251 517 0 3 -409 6 -909 6 l-909 0 -29 -62 c-69 -148 -212 -351 -353 -501
-364 -390 -917 -634 -1590 -701 -361 -36 -476 -40 -1205 -41 l-730 0 -3 653
-2 652 -795 0 -795 0 -3 -2212z"/>
<path d="M44950 19507 c0 -1 197 -243 439 -536 l438 -534 9 -731 c18 -1489 6
-1942 -66 -2516 -11 -85 -20 -163 -20 -172 0 -17 50 -18 905 -18 728 0 905 3
905 13 0 7 -9 75 -19 152 -25 178 -48 423 -61 640 -12 212 -12 1032 0 1380 5
143 12 479 16 747 l7 488 461 536 c254 295 463 540 464 545 2 5 -735 9 -1737
9 -958 0 -1741 -1 -1741 -3z"/>
<path d="M52575 19498 c-3 -7 -6 -1022 -8 -2256 l-2 -2242 3203 0 3202 0 0
454 0 454 -37 -9 c-21 -4 -78 -17 -126 -28 -87 -21 -104 -21 -2362 -21 l-2275
0 0 1830 0 1830 -795 0 c-627 0 -797 -3 -800 -12z"/>
<path d="M60710 17487 c0 -2166 1 -2126 -50 -2371 -11 -54 -20 -102 -20 -107
0 -5 379 -9 896 -9 l897 0 -7 43 c-42 253 -40 140 -43 2360 l-4 2107 -834 0
-835 0 0 -2023z"/>
<path d="M67230 17255 l0 -2255 830 0 830 0 0 2255 0 2255 -830 0 -830 0 0
-2255z"/>
<path d="M61830 8353 c0 -129 59 -478 125 -741 217 -866 659 -1678 1196 -2197
319 -308 557 -442 869 -490 82 -13 478 -15 2787 -15 l2693 0 2 1583 c3 1497 4
1588 22 1690 10 59 17 110 14 112 -3 3 -517 4 -1144 3 l-1139 -3 190 -107 190
-106 3 -1067 2 -1066 -1212 4 c-1323 4 -1250 1 -1463 62 -111 32 -287 115
-389 185 -505 340 -877 970 -1025 1734 -27 136 -37 206 -56 389 l-6 57 -830 0
-829 0 0 -27z"/>
<path d="M17114 8348 c3 -18 8 -69 12 -113 14 -186 80 -517 150 -764 270 -940
769 -1760 1359 -2234 174 -139 312 -217 487 -272 182 -57 41 -55 2965 -55
l2692 0 4 1568 c3 1419 5 1577 20 1672 10 58 20 113 23 122 5 17 -52 18 -1143
17 l-1148 -1 198 -96 197 -97 0 -1073 0 -1073 -1212 4 c-1359 3 -1274 -1
-1513 78 -217 72 -400 188 -598 379 -138 132 -217 228 -329 395 -96 144 -240
432 -303 608 -88 246 -162 578 -187 836 l-12 131 -834 0 -833 0 5 -32z"/>
<path d="M31317 10530 c-9 -19 -250 -554 -536 -1189 -286 -635 -519 -1156
-517 -1158 1 -2 489 -2 1083 -1 l1080 3 -536 1165 c-295 641 -541 1177 -547
1190 l-12 25 -15 -35z"/>
<path d="M28086 8288 c-24 -51 -380 -799 -791 -1663 -411 -863 -763 -1603
-781 -1643 l-34 -72 857 2 856 3 184 340 c186 344 415 794 467 917 60 144 209
262 363 287 49 8 671 11 2268 9 l2200 -3 70 -185 c39 -102 113 -284 164 -405
153 -364 296 -723 337 -847 l38 -118 873 0 c480 0 873 1 873 3 0 1 -52 97
-115 212 -364 660 -952 1905 -1446 3057 l-84 197 -772 1 c-425 0 -773 -4 -773
-8 0 -4 65 -149 145 -322 80 -173 145 -318 145 -322 0 -4 -803 -8 -1785 -8
-982 0 -1785 2 -1785 5 0 3 63 146 141 318 78 171 143 318 146 325 4 9 -171
12 -857 12 l-861 0 -43 -92z"/>
<path d="M37765 7793 c-9 -672 -22 -2864 -17 -2875 2 -5 416 -8 921 -8 l918 0
-33 188 -33 187 -1 1548 0 1547 -874 0 -873 0 -8 -587z"/>
<path d="M40890 8376 c0 -8 1723 -3031 1735 -3044 9 -10 86 119 375 630 200
354 585 1035 857 1515 271 480 496 879 499 888 6 13 -63 15 -667 15 l-674 -1
-189 -329 c-104 -182 -192 -330 -196 -330 -3 0 -91 149 -194 330 l-189 330
-678 0 c-374 0 -679 -2 -679 -4z"/>
<path d="M45730 6798 c0 -1529 -1 -1588 -20 -1718 -11 -74 -20 -143 -20 -152
0 -17 50 -18 911 -18 l911 0 -6 28 c-22 104 -26 416 -26 1863 l0 1579 -875 0
-875 0 0 -1582z"/>
<path d="M49078 6898 l-3 -1483 -43 -225 c-23 -124 -45 -237 -48 -252 l-6 -28
1012 0 1012 0 -5 28 c-31 176 -48 300 -57 417 -6 87 -10 690 -10 1583 l0 1442
-925 0 -924 0 -3 -1482z"/>
<path d="M52520 6645 l0 -1735 890 0 890 0 0 1735 0 1735 -890 0 -890 0 0
-1735z"/>
<path d="M55710 8374 c0 -9 169 -238 496 -674 628 -837 1316 -1715 1963 -2502
l236 -288 1004 0 1004 0 -7 43 c-41 246 -39 196 -43 1845 l-4 1582 -864 0
-865 0 0 -395 0 -395 -365 0 -364 0 -234 313 c-128 171 -260 349 -293 395
l-59 82 -802 0 c-442 0 -803 -3 -803 -6z"/>
</g>
</svg>
